<svg width="153" height="34" viewBox="0 0 153 34" fill="none" xmlns="http://www.w3.org/2000/svg">
<rect x="1" y="1" width="32" height="32" rx="5" fill="url(#paint0_radial_54_31179)"/>
<g clip-path="url(#clip0_54_31179)">
<path d="M29.4199 20.8028C29.0785 19.7156 28.5972 18.6061 27.9936 17.5001C28.5972 16.3942 29.0785 15.2846 29.4199 14.1974C29.8281 12.8741 30.0178 11.7495 29.9954 10.554C29.9549 8.9148 29.4326 7.54704 28.4422 6.5571C26.7859 4.90037 24.0724 4.55331 20.8019 5.57937C19.7143 5.92058 18.6053 6.40139 17.4991 7.00521C16.393 6.40139 15.284 5.92058 14.1964 5.57937C10.9259 4.55331 8.21286 4.90037 6.55613 6.5571C4.8994 8.21335 4.55233 10.9269 5.57839 14.1974C5.91975 15.2846 6.40105 16.3942 7.00472 17.5001C6.40105 18.6061 5.91975 19.7156 5.57839 20.8028C4.55233 24.0734 4.8994 26.7869 6.55613 28.4431C7.58805 29.4755 9.03049 29.9993 10.7624 29.9993C11.8099 29.9993 12.9639 29.8075 14.1964 29.4209C15.284 29.0797 16.393 28.5989 17.4991 27.995C18.6053 28.5989 19.7143 29.0797 20.8019 29.4209C22.0344 29.8075 23.1884 29.9993 24.2359 29.9993C25.9678 29.9993 27.4102 29.4755 28.4422 28.4431C29.524 27.3917 30.0556 25.7346 29.9954 24.0192C29.971 23.0297 29.7801 21.9505 29.4199 20.8028ZM21.2402 6.9769C22.5967 6.56413 23.6825 6.38997 24.9095 6.50292C25.9532 6.61226 26.7937 6.97885 27.4068 7.59244C28.0204 8.20554 28.387 9.04611 28.4963 10.0897C28.6091 11.1631 28.45 12.3976 28.0224 13.7591C27.7887 14.5035 27.4827 15.2607 27.1115 16.0209C26.1091 14.4718 24.8772 12.953 23.4617 11.5375C22.046 10.1219 20.5272 8.89029 18.9781 7.88786C19.7383 7.51663 20.4956 7.21062 21.2402 6.9769ZM6.97592 13.7591C6.54832 12.3976 6.38918 11.1631 6.50194 10.0897C6.61129 9.04611 6.97788 8.20554 7.59146 7.59244C8.20456 6.97885 9.04513 6.61226 10.0888 6.50292C11.3151 6.38992 12.4022 6.56418 13.7581 6.9769C14.5027 7.21062 15.26 7.51663 16.0201 7.88791C14.471 8.89034 12.9523 10.1219 11.5366 11.5376C10.1211 12.9531 8.88922 14.4719 7.88678 16.021C7.51561 15.2607 7.20955 14.5035 6.97592 13.7591ZM13.7581 28.0233C12.3967 28.451 11.1622 28.6101 10.0888 28.4973C9.04513 28.388 8.20456 28.0214 7.59146 27.4078C6.97788 26.7947 6.61129 25.9541 6.50194 24.9105C6.38918 23.8371 6.54832 22.6026 6.97592 21.2412C7.20955 20.4967 7.51561 19.7395 7.88678 18.9793C8.88922 20.5284 10.1211 22.0472 11.5366 23.4627C12.9523 24.8784 14.471 26.11 16.0201 27.1123C15.2599 27.4836 14.5027 27.7896 13.7581 28.0233ZM12.5719 22.4274C11.0178 20.8733 9.70094 19.1948 8.68952 17.5001C9.70094 15.8054 11.0178 14.127 12.5719 12.5729C14.1261 11.0187 15.8043 9.70118 17.4991 8.69026C19.1939 9.70118 20.8722 11.0187 22.4264 12.5729C23.9805 14.127 25.2974 15.8054 26.3088 17.5001C25.2974 19.1948 23.9805 20.8733 22.4264 22.4274C20.8722 23.9816 19.1939 25.2991 17.4991 26.31C15.8043 25.2991 14.1261 23.9816 12.5719 22.4274ZM28.4963 24.9105C28.387 25.9541 28.0204 26.7947 27.4068 27.4078C26.7937 28.0214 25.9532 28.388 24.9095 28.4973C23.8361 28.6101 22.6016 28.451 21.2402 28.0233C20.4956 27.7896 19.7383 27.4836 18.9781 27.1123C20.5272 26.1099 22.046 24.8784 23.4617 23.4627C24.8772 22.0472 26.1091 20.5284 27.1115 18.9793C27.4827 19.7395 27.7887 20.4967 28.0224 21.2412C28.45 22.6026 28.6091 23.8371 28.4963 24.9105Z" fill="#CDEFF0"/>
<path d="M21.9717 14.5227C20.7288 13.2727 18.677 13.3422 17.4999 14.6452C16.9051 13.9991 16.0846 13.6177 15.2027 13.6221C14.3812 13.6221 13.6089 13.9423 13.0281 14.5227C11.8292 15.7221 11.8292 17.6731 13.0281 18.872L16.979 22.8225C17.2627 23.1064 17.7347 23.1107 18.0207 22.8225L21.9717 18.872C22.5711 18.2726 22.8708 17.4852 22.8708 16.6974C22.8708 15.91 22.5711 15.1226 21.9717 14.5227Z" fill="#CDEFF0"/>
</g>
<path d="M48.1968 21.5545C48.1968 21.2418 48.1488 20.9625 48.0526 20.7168C47.9639 20.4636 47.7975 20.2365 47.5534 20.0355C47.3167 19.827 46.9802 19.6259 46.5438 19.4323C46.1149 19.2313 45.5602 19.0228 44.8798 18.8068C44.1254 18.5686 43.4228 18.3005 42.7719 18.0026C42.1211 17.7048 41.5479 17.3585 41.0524 16.9639C40.5642 16.5692 40.1833 16.115 39.9097 15.6012C39.636 15.0799 39.4992 14.4768 39.4992 13.7917C39.4992 13.1216 39.6397 12.511 39.9208 11.9599C40.2092 11.4089 40.616 10.936 41.1411 10.5414C41.6662 10.1393 42.2838 9.83027 42.9938 9.61432C43.7112 9.39838 44.5026 9.29041 45.3679 9.29041C46.566 9.29041 47.6015 9.51007 48.4742 9.94941C49.3543 10.3887 50.0347 10.9845 50.5155 11.7365C50.7255 12.0652 50.8897 12.4116 51.008 12.7758C51.2672 13.5741 50.5561 14.272 49.7167 14.272H49.5903C48.8207 14.272 48.248 13.6049 47.8751 12.9317V12.9317C47.668 12.5445 47.35 12.2392 46.921 12.0158C46.4995 11.7924 45.967 11.6807 45.3235 11.6807C44.7023 11.6807 44.1845 11.7738 43.7704 11.9599C43.3636 12.1461 43.0567 12.3993 42.8496 12.7194C42.6499 13.0396 42.55 13.3971 42.55 13.7917C42.55 14.0896 42.6203 14.3576 42.7608 14.5959C42.9014 14.8268 43.1121 15.0464 43.3932 15.2549C43.6742 15.456 44.0218 15.6459 44.436 15.8246C44.8576 15.9958 45.3457 16.1671 45.9004 16.3384C46.7879 16.6064 47.5645 16.9043 48.2301 17.2319C48.9031 17.5596 49.4615 17.9319 49.9053 18.3489C50.3564 18.7659 50.693 19.235 50.9148 19.7562C51.1441 20.2775 51.2587 20.8695 51.2587 21.5322C51.2587 22.2322 51.1219 22.8576 50.8483 23.4087C50.5746 23.9597 50.1826 24.4288 49.6723 24.816C49.162 25.2032 48.5481 25.4974 47.8307 25.6984C47.1207 25.8995 46.3257 26 45.4455 26C44.6616 26 43.885 25.8958 43.1158 25.6873C42.3541 25.4713 41.6625 25.1511 41.0413 24.7267C40.42 24.2948 39.9245 23.7512 39.5547 23.0959C39.4128 22.8416 39.2981 22.5707 39.2106 22.2835C38.9644 21.4746 39.6854 20.7727 40.531 20.7727H40.7117C41.4574 20.7727 42.0023 21.4096 42.306 22.0907V22.0907C42.4761 22.4481 42.7128 22.7422 43.016 22.9731C43.3266 23.1965 43.689 23.3603 44.1032 23.4645C44.5174 23.5688 44.9648 23.6209 45.4455 23.6209C46.0668 23.6209 46.5771 23.5353 46.9765 23.364C47.3833 23.1853 47.6865 22.9396 47.8862 22.6268C48.0933 22.3141 48.1968 21.9566 48.1968 21.5545Z" fill="#365F7B"/>
<path d="M79.942 13.6912C80.7538 13.6912 81.4119 14.3493 81.4119 15.1611V24.3067C81.4119 25.1185 80.7538 25.7766 79.942 25.7766V25.7766C79.1302 25.7766 78.4721 25.1185 78.4721 24.3067V15.1611C78.4721 14.3493 79.1302 13.6912 79.942 13.6912V13.6912ZM78.2724 10.5302C78.2724 10.0909 78.4203 9.72602 78.7161 9.43561C79.0194 9.1452 79.4261 9 79.9365 9C80.4468 9 80.8499 9.1452 81.1457 9.43561C81.4489 9.72602 81.6005 10.0909 81.6005 10.5302C81.6005 10.9621 81.4489 11.3233 81.1457 11.6137C80.8499 11.9041 80.4468 12.0493 79.9365 12.0493C79.4261 12.0493 79.0194 11.9041 78.7161 11.6137C78.4203 11.3233 78.2724 10.9621 78.2724 10.5302Z" fill="#365F7B"/>
<path d="M83.6862 19.8568V19.6222C83.6862 18.7361 83.8119 17.9207 84.0634 17.1761C84.3148 16.424 84.6809 15.7724 85.1617 15.2214C85.6424 14.6704 86.2304 14.2422 86.9256 13.9369C87.6208 13.6242 88.4122 13.4678 89.2997 13.4678C90.202 13.4678 91.0008 13.6242 91.696 13.9369C92.3986 14.2422 92.9903 14.6704 93.471 15.2214C93.9517 15.7724 94.3178 16.424 94.5693 17.1761C94.8208 17.9207 94.9465 18.7361 94.9465 19.6222V19.8568C94.9465 20.7354 94.8208 21.5508 94.5693 22.3029C94.3178 23.0475 93.9517 23.6991 93.471 24.2576C92.9903 24.8086 92.4023 25.2367 91.7071 25.542C91.0119 25.8473 90.2168 26 89.3219 26C88.4344 26 87.6393 25.8473 86.9367 25.542C86.2341 25.2367 85.6424 24.8086 85.1617 24.2576C84.6809 23.6991 84.3148 23.0475 84.0634 22.3029C83.8119 21.5508 83.6862 20.7354 83.6862 19.8568ZM86.615 19.6222V19.8568C86.615 20.3855 86.6667 20.8806 86.7703 21.3423C86.8738 21.804 87.0328 22.2098 87.2473 22.5598C87.4618 22.9098 87.7392 23.1853 88.0794 23.3863C88.427 23.5799 88.8411 23.6767 89.3219 23.6767C89.7952 23.6767 90.202 23.5799 90.5422 23.3863C90.8824 23.1853 91.1598 22.9098 91.3743 22.5598C91.5961 22.2098 91.7588 21.804 91.8624 21.3423C91.9659 20.8806 92.0177 20.3855 92.0177 19.8568V19.6222C92.0177 19.101 91.9659 18.6132 91.8624 18.159C91.7588 17.6973 91.5961 17.2915 91.3743 16.9415C91.1598 16.5841 90.8787 16.3049 90.5311 16.1038C90.1909 15.8953 89.7804 15.7911 89.2997 15.7911C88.8264 15.7911 88.4196 15.8953 88.0794 16.1038C87.7392 16.3049 87.4618 16.5841 87.2473 16.9415C87.0328 17.2915 86.8738 17.6973 86.7703 18.159C86.6667 18.6132 86.615 19.101 86.615 19.6222Z" fill="#365F7B"/>
<path d="M115.571 21.7823C115.863 21.0471 116.481 20.4264 117.272 20.4264V20.4264C118.166 20.4264 118.893 21.1989 118.616 22.0487C118.469 22.4995 118.274 22.923 118.03 23.3193C117.512 24.1533 116.791 24.8086 115.866 25.2852C114.942 25.7617 113.821 26 112.505 26C111.492 26 110.578 25.8213 109.765 25.4639C108.959 25.099 108.267 24.5815 107.69 23.9113C107.121 23.2337 106.684 22.422 106.381 21.4763C106.078 20.5232 105.926 19.4547 105.926 18.2707V17.0309C105.926 15.8469 106.082 14.7784 106.392 13.8252C106.703 12.8721 107.147 12.0604 107.724 11.3903C108.308 10.7127 109.007 10.1914 109.82 9.82654C110.641 9.46167 111.558 9.27924 112.572 9.27924C113.888 9.27924 115.001 9.52497 115.911 10.0164C116.821 10.5004 117.527 11.1669 118.03 12.0158C118.269 12.4203 118.464 12.8535 118.613 13.3156C118.886 14.1643 118.169 14.9422 117.277 14.9422V14.9422C116.492 14.9422 115.876 14.3249 115.609 13.5861C115.56 13.4505 115.505 13.3217 115.445 13.1997C115.216 12.7232 114.868 12.362 114.402 12.1163C113.943 11.8631 113.333 11.7365 112.572 11.7365C111.98 11.7365 111.458 11.8482 111.007 12.0716C110.564 12.295 110.194 12.6301 109.898 13.0769C109.602 13.5162 109.38 14.0672 109.232 14.73C109.084 15.3852 109.01 16.1448 109.01 17.0085V18.2707C109.01 19.0972 109.077 19.8382 109.21 20.4934C109.343 21.1487 109.55 21.7035 109.831 22.1577C110.112 22.6119 110.475 22.9582 110.919 23.1965C111.362 23.4347 111.891 23.5539 112.505 23.5539C113.252 23.5539 113.858 23.4347 114.324 23.1965C114.798 22.9582 115.156 22.6082 115.4 22.1465C115.463 22.032 115.52 21.9106 115.571 21.7823Z" fill="#0E9399"/>
<path fill-rule="evenodd" clip-rule="evenodd" d="M67.0232 25.7766C67.8319 25.7766 68.4876 25.121 68.4876 24.3122V17.2102C68.5546 17.0807 68.6286 16.9576 68.7094 16.841C68.9387 16.5208 69.2198 16.2714 69.5526 16.0926C69.8928 15.9065 70.2885 15.8134 70.7396 15.8134C71.176 15.8134 71.5421 15.8804 71.8379 16.0145C72.1411 16.1485 72.3704 16.3756 72.5257 16.6958C72.6884 17.016 72.7698 17.4516 72.7698 18.0026V24.3011C72.7698 25.116 73.4304 25.7766 74.2453 25.7766V25.7766C75.0602 25.7766 75.7208 25.116 75.7208 24.3011V18.025C75.7208 17.1835 75.6283 16.4761 75.4434 15.9028C75.2659 15.3219 75.0071 14.8528 74.6669 14.4954C74.334 14.138 73.9347 13.8774 73.4687 13.7135C73.0028 13.5497 72.4814 13.4678 71.9045 13.4678C71.1945 13.4678 70.551 13.6056 69.9741 13.8811C69.3973 14.1566 68.898 14.5512 68.4765 15.065C68.4542 15.0927 68.4321 15.1207 68.4103 15.1489L68.4012 15.0164C68.3499 14.2703 67.7296 13.6912 66.9817 13.6912V13.6912C66.1958 13.6912 65.5588 14.3283 65.5588 15.1141V24.3122C65.5588 25.121 66.2144 25.7766 67.0232 25.7766V25.7766ZM68.4876 16.2714V17.2102C68.3705 17.4362 68.2743 17.6817 68.1991 17.9468C68.1166 18.2375 68.0629 18.5445 68.0379 18.8678C68.0196 19.1051 67.8287 19.2983 67.5908 19.2983V19.2983C67.3514 19.2983 67.1568 19.103 67.1693 18.864C67.2064 18.1552 67.3204 17.5032 67.5113 16.908C67.7119 16.2825 67.9833 15.734 68.3255 15.2624C68.3533 15.2241 68.3816 15.1863 68.4103 15.1489L68.4876 16.2714Z" fill="#365F7B"/>
<path d="M67.1693 18.864C67.1568 19.103 67.3514 19.2983 67.5908 19.2983V19.2983C67.8287 19.2983 68.0196 19.1051 68.0379 18.8678C68.0629 18.5445 68.1166 18.2375 68.1991 17.9468C68.2743 17.6817 68.3705 17.4362 68.4876 17.2102V16.2714L68.4103 15.1489C68.3816 15.1863 68.3533 15.2241 68.3255 15.2624C67.9833 15.734 67.7119 16.2825 67.5113 16.908C67.3204 17.5032 67.2064 18.1552 67.1693 18.864Z" fill="#365F7B"/>
<path fill-rule="evenodd" clip-rule="evenodd" d="M98.5409 25.7766C99.3497 25.7766 100.005 25.121 100.005 24.3122V17.6647C100.118 17.403 100.266 17.1768 100.449 16.9862C100.678 16.7554 100.963 16.5804 101.303 16.4612C101.643 16.3346 102.039 16.2714 102.49 16.2714C102.668 16.2714 102.856 16.2788 103.056 16.2937V16.2937C103.348 16.3147 103.615 16.0944 103.62 15.8018L103.648 14.0801C103.652 13.7987 103.48 13.545 103.2 13.5125V13.5125C103.015 13.4827 102.842 13.4678 102.679 13.4678C102.095 13.4678 101.577 13.6056 101.126 13.8811C100.682 14.1491 100.312 14.5289 100.016 15.0204C99.991 15.0626 99.9661 15.1054 99.9417 15.1488L99.9343 15.0317C99.8869 14.2781 99.2619 13.6912 98.5068 13.6912V13.6912C97.7169 13.6912 97.0765 14.3316 97.0765 15.1215V24.3122C97.0765 25.121 97.7321 25.7766 98.5409 25.7766V25.7766ZM100.005 16.1597V17.6647C99.9815 17.7199 99.9593 17.7767 99.9387 17.8351C99.8547 18.0678 99.7967 18.3231 99.7649 18.601C99.7434 18.789 99.5775 18.9321 99.3896 18.9088V18.9088C99.2281 18.8889 99.1061 18.7515 99.1103 18.5888C99.1273 17.9299 99.2038 17.3138 99.3397 16.7405C99.4756 16.1671 99.6653 15.6564 99.9087 15.2085C99.9196 15.1885 99.9306 15.1686 99.9417 15.1488L100.005 16.1597Z" fill="#365F7B"/>
<path d="M99.3896 18.9088C99.5775 18.9321 99.7434 18.789 99.7649 18.601C99.7967 18.3231 99.8547 18.0678 99.9387 17.8351C99.9593 17.7767 99.9815 17.7199 100.005 17.6647V16.1597L99.9417 15.1488C99.9306 15.1686 99.9196 15.1885 99.9087 15.2085C99.6653 15.6564 99.4756 16.1671 99.3397 16.7405C99.2038 17.3138 99.1273 17.9299 99.1103 18.5888C99.1061 18.7515 99.2281 18.8889 99.3896 18.9088V18.9088Z" fill="#365F7B"/>
<path fill-rule="evenodd" clip-rule="evenodd" d="M127.792 24.6127C127.683 24.736 127.565 24.8559 127.437 24.9724C127.112 25.2703 126.72 25.516 126.261 25.7096C125.803 25.9032 125.27 26 124.664 26C123.887 26 123.192 25.8436 122.578 25.5309C121.964 25.2181 121.48 24.79 121.125 24.2464C120.77 23.7028 120.592 23.0848 120.592 22.3922C120.592 21.7519 120.711 21.1859 120.947 20.6945C121.184 20.203 121.535 19.7897 122.001 19.4547C122.467 19.1121 123.044 18.8552 123.732 18.684C124.427 18.5053 125.222 18.4159 126.117 18.4159H127.681V20.1695H126.261C125.803 20.1695 125.4 20.2179 125.052 20.3147C124.705 20.4041 124.42 20.5381 124.198 20.7168C123.976 20.8881 123.81 21.0966 123.699 21.3423C123.588 21.5806 123.532 21.8524 123.532 22.1577C123.532 22.4555 123.599 22.7236 123.732 22.9619C123.873 23.2002 124.072 23.3901 124.331 23.5315C124.597 23.6656 124.908 23.7326 125.263 23.7326C125.781 23.7326 126.232 23.6283 126.616 23.4198C127.001 23.2039 127.301 22.9433 127.515 22.638C127.58 22.5462 127.635 22.4557 127.681 22.3666V20.1695V20.1695C127.919 20.1695 128.112 19.9749 128.109 19.7369L128.097 18.8263C128.094 18.5988 127.909 18.4159 127.681 18.4159V18.4159V17.634C127.681 17.2245 127.611 16.8708 127.471 16.5729C127.33 16.2751 127.116 16.0442 126.827 15.8804C126.539 15.7166 126.173 15.6347 125.729 15.6347C125.337 15.6347 124.993 15.7017 124.697 15.8357C124.409 15.9698 124.187 16.1597 124.032 16.4054V16.4054C123.769 16.8085 123.409 17.2319 122.927 17.2319H122.329C121.517 17.2319 120.834 16.5308 121.214 15.8134V15.8134C121.45 15.3592 121.787 14.9571 122.223 14.6071C122.667 14.2497 123.196 13.9704 123.81 13.7694C124.431 13.5683 125.126 13.4678 125.895 13.4678C126.805 13.4678 127.615 13.6242 128.325 13.9369C129.042 14.2422 129.604 14.7039 130.011 15.3219C130.425 15.94 130.632 16.7181 130.632 17.6564V22.9284C130.632 23.5315 130.669 24.0491 130.743 24.4809C130.822 24.8908 130.935 25.2486 131.082 25.5543C131.093 25.5757 131.098 25.5991 131.098 25.6228V25.6228C131.098 25.7078 131.029 25.7766 130.945 25.7766H129.279C128.569 25.7766 127.914 25.3591 127.799 24.6582C127.797 24.6439 127.795 24.6295 127.792 24.615L127.792 24.6127Z" fill="#0E9399"/>
<path d="M127.681 20.1695C127.919 20.1695 128.112 19.9749 128.109 19.7369L128.097 18.8263C128.094 18.5988 127.909 18.4159 127.681 18.4159V18.4159V20.1695V20.1695Z" fill="#0E9399"/>
<path fill-rule="evenodd" clip-rule="evenodd" d="M134.737 25.7766C135.546 25.7766 136.202 25.121 136.202 24.3122V17.6647C136.314 17.403 136.462 17.1768 136.645 16.9862C136.875 16.7554 137.159 16.5804 137.5 16.4612C137.84 16.3346 138.235 16.2714 138.687 16.2714C138.864 16.2714 139.053 16.2788 139.252 16.2937V16.2937C139.544 16.3147 139.811 16.0944 139.816 15.8018L139.844 14.0801C139.848 13.7987 139.676 13.545 139.397 13.5125V13.5125C139.212 13.4827 139.038 13.4678 138.875 13.4678C138.291 13.4678 137.773 13.6056 137.322 13.8811C136.878 14.1491 136.508 14.5289 136.213 15.0204C136.187 15.0626 136.162 15.1054 136.138 15.1488L136.131 15.0317C136.083 14.2781 135.458 13.6912 134.703 13.6912V13.6912C133.913 13.6912 133.273 14.3316 133.273 15.1215V24.3122C133.273 25.121 133.928 25.7766 134.737 25.7766V25.7766ZM136.202 16.1597V17.6647C136.178 17.7199 136.156 17.7767 136.135 17.8351C136.051 18.0678 135.993 18.3231 135.961 18.601C135.94 18.789 135.774 18.9321 135.586 18.9088V18.9088C135.424 18.8889 135.302 18.7515 135.307 18.5888C135.324 17.9299 135.4 17.3138 135.536 16.7405C135.672 16.1671 135.861 15.6564 136.105 15.2085C136.116 15.1885 136.127 15.1686 136.138 15.1488L136.202 16.1597Z" fill="#0E9399"/>
<path d="M135.586 18.9088C135.774 18.9321 135.94 18.789 135.961 18.601C135.993 18.3231 136.051 18.0678 136.135 17.8351C136.156 17.7767 136.178 17.7199 136.202 17.6647V16.1597L136.138 15.1488C136.127 15.1686 136.116 15.1885 136.105 15.2085C135.861 15.6564 135.672 16.1671 135.536 16.7405C135.4 17.3138 135.324 17.9299 135.307 18.5888C135.302 18.7515 135.424 18.8889 135.586 18.9088V18.9088Z" fill="#0E9399"/>
<path fill-rule="evenodd" clip-rule="evenodd" d="M144.178 25.5532C144.903 25.8511 145.72 26 146.63 26C147.414 26 148.105 25.8958 148.704 25.6873C149.303 25.4713 149.814 25.1921 150.235 24.8495C150.401 24.7172 150.554 24.5826 150.693 24.4457C151.057 24.0877 151.004 23.5139 150.651 23.1448V23.1448C150.192 22.666 149.42 22.7276 148.867 23.0931C148.74 23.1771 148.608 23.2525 148.471 23.3193C147.976 23.5576 147.421 23.6767 146.807 23.6767C146.319 23.6767 145.883 23.5911 145.498 23.4198C145.121 23.2411 144.796 22.9954 144.522 22.6827C144.256 22.3625 144.052 21.9864 143.912 21.5545C143.822 21.2625 143.762 20.9535 143.733 20.6275H150.26C150.945 20.6275 151.5 20.0724 151.5 19.3876V19.3876C151.5 18.509 151.389 17.7085 151.167 16.9862C150.945 16.2565 150.616 15.631 150.18 15.1097C149.743 14.5885 149.2 14.1864 148.549 13.9034C147.898 13.613 147.147 13.4678 146.297 13.4678C145.476 13.4678 144.725 13.6167 144.045 13.9146C143.364 14.2124 142.78 14.6369 142.292 15.1879C141.804 15.7389 141.427 16.3979 141.16 17.1649C140.894 17.9244 140.761 18.7696 140.761 19.7004V20.1472C140.761 20.9663 140.894 21.7332 141.16 22.4481C141.434 23.1555 141.822 23.7773 142.325 24.3134C142.836 24.8421 143.453 25.2554 144.178 25.5532ZM143.783 18.5946H148.392C148.516 18.5946 148.616 18.4946 148.616 18.3712V18.3712C148.601 17.9021 148.512 17.4739 148.349 17.0867C148.187 16.6921 147.935 16.3793 147.595 16.1485C147.255 15.9102 146.815 15.7911 146.275 15.7911C145.838 15.7911 145.458 15.8879 145.132 16.0815C144.814 16.2676 144.548 16.5357 144.333 16.8857C144.126 17.2282 143.971 17.6378 143.867 18.1143C143.834 18.2689 143.806 18.429 143.783 18.5946ZM143.712 19.7004V20.1472C143.712 20.3054 143.719 20.46 143.732 20.611C143.732 20.6165 143.733 20.622 143.733 20.6275H143.109C142.547 20.6275 142.092 20.1724 142.092 19.611V19.611C142.092 19.0497 142.547 18.5946 143.109 18.5946H143.783C143.736 18.9394 143.712 19.308 143.712 19.7004Z" fill="#0E9399"/>
<path d="M143.109 18.5946C142.547 18.5946 142.092 19.0497 142.092 19.611V19.611C142.092 20.1724 142.547 20.6275 143.109 20.6275H143.733L143.732 20.611C143.719 20.46 143.712 20.3054 143.712 20.1472V19.7004C143.712 19.308 143.736 18.9394 143.783 18.5946H143.109Z" fill="#0E9399"/>
<path fill-rule="evenodd" clip-rule="evenodd" d="M56.3287 25.5532C57.0535 25.8511 57.8707 26 58.7804 26C59.5644 26 60.2559 25.8958 60.855 25.6873C61.454 25.4713 61.9644 25.1921 62.3859 24.8495C62.5517 24.7172 62.7042 24.5826 62.8435 24.4457C63.208 24.0877 63.1545 23.5139 62.8012 23.1448V23.1448C62.3428 22.666 61.5706 22.7276 61.0177 23.0931C60.8907 23.1771 60.7588 23.2525 60.622 23.3193C60.1265 23.5576 59.5718 23.6767 58.9579 23.6767C58.4698 23.6767 58.0334 23.5911 57.6488 23.4198C57.2716 23.2411 56.9462 22.9954 56.6726 22.6827C56.4063 22.3625 56.2029 21.9864 56.0624 21.5545C55.9724 21.2625 55.9128 20.9535 55.8837 20.6275H62.4108C63.0955 20.6275 63.6506 20.0724 63.6506 19.3876V19.3876C63.6506 18.509 63.5397 17.7085 63.3178 16.9862C63.0959 16.2565 62.7668 15.631 62.3304 15.1097C61.8941 14.5885 61.3505 14.1864 60.6996 13.9034C60.0488 13.613 59.2981 13.4678 58.4476 13.4678C57.6266 13.4678 56.876 13.6167 56.1955 13.9146C55.5151 14.2124 54.9308 14.6369 54.4427 15.1879C53.9546 15.7389 53.5774 16.3979 53.3111 17.1649C53.0449 17.9244 52.9117 18.7696 52.9117 19.7004V20.1472C52.9117 20.9663 53.0449 21.7332 53.3111 22.4481C53.5848 23.1555 53.9731 23.7773 54.476 24.3134C54.9863 24.8421 55.6039 25.2554 56.3287 25.5532ZM54.456 20.2086C54.6472 20.4718 54.9529 20.6275 55.2782 20.6275H55.8837C55.8832 20.622 55.8827 20.6165 55.8822 20.611C55.8692 20.46 55.8627 20.3054 55.8627 20.1472V19.7004C55.8627 19.308 55.8863 18.9394 55.9336 18.5946H60.5428C60.6662 18.5946 60.7662 18.4946 60.7662 18.3712V18.3712C60.7514 17.9021 60.6627 17.4739 60.5 17.0867C60.3372 16.6921 60.0858 16.3793 59.7456 16.1485C59.4054 15.9102 58.9653 15.7911 58.4254 15.7911C57.989 15.7911 57.6082 15.8879 57.2827 16.0815C56.9647 16.2676 56.6985 16.5357 56.484 16.8857C56.2769 17.2282 56.1216 17.6378 56.018 18.1143C55.9844 18.2689 55.9563 18.429 55.9336 18.5946H55.2782C54.4476 18.5946 53.9677 19.5368 54.456 20.2086V20.2086Z" fill="#365F7B"/>
<path d="M55.2782 18.5946C54.4476 18.5946 53.9677 19.5368 54.456 20.2086V20.2086C54.6472 20.4718 54.9529 20.6275 55.2782 20.6275H55.8837L55.8822 20.611C55.8692 20.46 55.8627 20.3054 55.8627 20.1472V19.7004C55.8627 19.308 55.8863 18.9394 55.9336 18.5946H55.2782Z" fill="#365F7B"/>
<defs>
<radialGradient id="paint0_radial_54_31179" cx="0" cy="0" r="1" gradientUnits="userSpaceOnUse" gradientTransform="translate(8.28821 31.5681) scale(34.6172 31.0204)">
<stop stop-color="#05AEB5"/>
<stop offset="0.364583" stop-color="#06ACB3"/>
<stop offset="0.526042" stop-color="#0AA5AE"/>
<stop offset="0.651042" stop-color="#1199A5"/>
<stop offset="0.770833" stop-color="#1C8899"/>
<stop offset="0.880208" stop-color="#297289"/>
<stop offset="1" stop-color="#365F7B"/>
</radialGradient>
<clipPath id="clip0_54_31179">
<rect width="25" height="25" fill="white" transform="translate(5 5)"/>
</clipPath>
</defs>
</svg>
