<svg width="660" height="630" viewBox="0 0 660 630" fill="none" xmlns="http://www.w3.org/2000/svg">
<path fill-rule="evenodd" clip-rule="evenodd" d="M660 0H0V630H660V0ZM382.989 150.5C382.989 228.649 319.637 292 241.489 292C163.34 292 99.9886 228.649 99.9886 150.5C99.9886 72.3517 163.34 9 241.489 9C319.637 9 382.989 72.3517 382.989 150.5ZM555.989 117C555.989 159.526 521.515 194 478.989 194C436.463 194 401.989 159.526 401.989 117C401.989 74.4737 436.463 39.9996 478.989 39.9996C521.515 39.9996 555.989 74.4737 555.989 117ZM66.4887 360C95.4836 360 118.989 336.495 118.989 307.5C118.989 278.505 95.4836 255 66.4887 255C37.4936 255 13.9885 278.505 13.9885 307.5C13.9885 336.495 37.4936 360 66.4887 360ZM211.5 408.5C233.5 424.732 268.5 430 263.5 397C260 381.653 253 346.05 259 327.5C274.014 281.087 326.987 266.331 373 286.5C382.372 290.608 394.429 299.614 403.551 306.428L403.552 306.429C408.567 310.175 412.695 313.258 415 314.5C447.5 325.5 469 289.5 470 277C470.378 272.284 470.558 268.242 470.726 264.469V264.468C471.233 253.089 471.632 244.148 477 226.5C486.337 195.806 559.162 165.799 623.5 194C669.513 214.169 665.539 321.813 644.5 366C633.563 388.97 618.092 415.984 595 423.5C590.621 424.925 581.561 436.709 579.638 440.745C578.128 443.919 575.636 465.613 576.5 469C583.888 497.979 583.781 511.356 569.853 540.609C536.979 609.651 452.047 640.073 380.151 608.56C317.309 583.407 260.757 590.231 209.886 596.37C165.649 601.708 125.707 606.527 89.6607 589.351C-62.8523 487.717 27.6608 354.349 141.161 368.737C170.783 372.492 180.761 381.626 193.928 393.681C198.915 398.247 204.359 403.23 211.5 408.5Z" fill="#1C394C"/>
</svg>
