<svg width="680" height="550" viewBox="0 0 680 550" fill="none" xmlns="http://www.w3.org/2000/svg">
<g clip-path="url(#clip0_162_31130)">
<path fill-rule="evenodd" clip-rule="evenodd" d="M0 0H680V550H0V0ZM100 160.5C100 201.093 133.131 234 174 234C214.869 234 248 201.093 248 160.5C248 119.907 214.869 87 174 87C133.131 87 100 119.907 100 160.5ZM268.167 118.812C268.167 152.117 276.482 165.788 284.792 179.45L284.793 179.45C287.169 183.356 289.544 187.262 291.725 191.626C297.467 216.999 284.112 220.186 268.372 223.942C263.31 225.15 258 226.417 253.001 228.5C236.614 235.328 227.395 241.981 219.355 247.783C203.845 258.975 192.726 267 143.001 267C141.359 267 139.733 266.997 138.121 266.994C102.914 266.924 74.4581 266.867 37.1679 300.812C-1.82955 336.312 20.2665 384.12 50.4589 414.312C78.0814 435.797 107.72 434.933 132.218 434.219C153.679 433.594 171.196 433.084 179.959 447.812C187.589 460.639 216.459 493.645 230.149 500.812C297.959 536.312 379.459 525.312 424.459 500.812C458.959 477.312 477.459 461.812 490.959 419.812C495.341 400.804 509.379 384.347 523.164 370.562C540.07 353.656 564.31 347.582 588.137 341.61C595.085 339.869 601.998 338.137 608.684 336.147C620.96 332.494 632.525 325.824 642.212 316.137C673.369 284.98 679.895 210.041 648.667 178.812C596.035 126.181 520.818 138.161 500.667 158.312C473.167 185.812 465.165 209.791 465.165 239.812C465.165 244.03 466.506 250.212 467.894 256.616C470.244 267.458 472.732 278.935 469.084 282.582C460.645 291.022 451.4 294.153 435.773 288.469C420.145 282.786 407.165 275.313 396.665 259.313C385.967 243.01 380.271 220.056 387.665 210.813C387.907 210.511 388.115 210.198 388.291 209.876C400.1 197.992 413.896 197.857 426.393 197.734C434.06 197.658 441.237 197.588 447.167 194.812C470.667 183.812 489.167 162.312 489.167 118.812C489.167 59.718 433.261 14.3125 374.167 14.3125C315.072 14.3125 268.167 59.718 268.167 118.812Z" fill="#CDEFF0"/>
</g>
<defs>
<clipPath id="clip0_162_31130">
<rect width="680" height="550" fill="white"/>
</clipPath>
</defs>
</svg>
