<svg width="680" height="550" viewBox="0 0 680 550" fill="none" xmlns="http://www.w3.org/2000/svg">
<g clip-path="url(#clip0_181_31130)">
<path fill-rule="evenodd" clip-rule="evenodd" d="M680 0H0V550H680V0ZM234.166 361.005C233.96 382.849 190.826 381.272 179.062 366.362C160.886 347.998 140.769 329.013 101.093 324.906C-9.17308 313.494 -16.5312 490.531 75.9334 528.286C117.659 545.324 162.998 535.52 211.472 525.039C263.928 513.696 320.054 501.56 379.243 521.786C448.911 547.909 551.249 553.659 595.735 508.981C635.871 468.672 666.548 432.524 667.467 335.302C667.53 328.691 667.621 322.034 667.713 315.343L667.713 315.325L667.713 315.307C668.953 224.805 670.275 128.271 602.048 59.3357C529.912 -13.5511 366.562 -3.56916 365.301 129.831C364.913 170.772 387.387 188.204 406.577 203.09C420.877 214.182 433.354 223.86 433.193 240.796C429.483 273.293 406.776 272.945 364.162 250.241C311.362 222.111 259.175 247.134 238.361 284.539C229.105 301.174 231.311 324.955 233.04 343.594C233.656 350.235 234.212 356.224 234.166 361.005ZM355 129C355 185.885 308.885 232 252 232C195.115 232 149 185.885 149 129C149 72.1147 195.115 26 252 26C308.885 26 355 72.1147 355 129ZM115 305C144.823 305 169 280.823 169 251C169 221.177 144.823 197 115 197C85.1766 197 61 221.177 61 251C61 280.823 85.1766 305 115 305Z" fill="#CDEFF0"/>
</g>
<defs>
<clipPath id="clip0_181_31130">
<rect width="680" height="550" fill="white"/>
</clipPath>
</defs>
</svg>
