<svg width="680" height="550" viewBox="0 0 680 550" fill="none" xmlns="http://www.w3.org/2000/svg">
<g clip-path="url(#clip0_196_31142)">
<path fill-rule="evenodd" clip-rule="evenodd" d="M680 0H0V550H680V0ZM551.486 14C623.855 14 666 98.0435 666 150.868V358.016C666 358.06 665.961 358.095 665.914 358.095C665.865 358.095 665.826 358.131 665.828 358.176C665.889 359.351 665.934 360.529 665.961 361.712C665.986 362.781 666 363.853 666 364.927C666 444.163 623.396 498.082 562.5 510.5C485.658 519.875 463.984 508.188 441.711 496.177C428.799 489.213 415.684 482.141 391.5 479C352.84 473.979 334.248 485.767 311.016 500.496C293.072 511.872 272.361 525.002 237.5 533.5C157.5 553 131 495.5 131 495.5C120.498 472.457 120.5 445.476 120.5 423.541V423C124.029 377.735 164.551 344.43 214.43 344.43C246.799 344.43 275.189 359.888 291.135 383.113C297.336 392.146 307.445 399.086 319.172 399.086C337.109 399.086 350.23 383.706 349.926 367.425C349.914 366.907 349.908 366.39 349.904 365.87L349.9 364.927C349.9 303.028 379.559 264.396 440.068 244.278C444.877 242.68 451.426 241.817 458.414 240.896C477.131 238.431 499 235.55 499 217C499 199.652 484.436 190.855 471.797 183.222C465.877 179.646 460.379 176.325 457 172.5C456.158 171.45 455.318 170.414 454.482 169.384C442.752 154.926 432 141.672 432 109C432 56.1753 482 14 551.486 14ZM299 274C364.17 274 417 221.17 417 156C417 90.8306 364.17 38 299 38C233.83 38 181 90.8306 181 156C181 221.17 233.83 274 299 274ZM63.1758 287.604C69.8613 322.025 103.184 344.508 137.605 337.824C172.025 331.138 194.51 297.815 187.824 263.395C181.139 228.974 147.816 206.491 113.395 213.177C78.9746 219.861 56.4922 253.184 63.1758 287.604ZM20.7773 452.006C25.1992 474.772 47.2402 489.644 70.0059 485.222C81.0645 483.074 90.2598 476.771 96.2852 468.245C100.402 462.423 103.041 455.563 103.785 448.286C104.193 444.281 104.029 440.149 103.223 435.993C98.8008 413.227 76.7598 398.356 53.9941 402.778C31.2285 407.199 16.3574 429.239 20.7773 452.006Z" fill="#CDEFF0"/>
</g>
<defs>
<clipPath id="clip0_196_31142">
<rect width="680" height="550" fill="white"/>
</clipPath>
</defs>
</svg>
